<?xml version="1.0" encoding="UTF-8" standalone="no"?>
<!-- Created with Inkscape (http://www.inkscape.org/) -->

<svg
   width="210mm"
   height="297mm"
   viewBox="0 0 210 297"
   version="1.1"
   id="svg5"
   inkscape:version="1.1.2 (b8e25be833, 2022-02-05)"
   xmlns:inkscape="http://www.inkscape.org/namespaces/inkscape"
   xmlns:sodipodi="http://sodipodi.sourceforge.net/DTD/sodipodi-0.dtd"
   xmlns="http://www.w3.org/2000/svg"
   xmlns:svg="http://www.w3.org/2000/svg">
  <sodipodi:namedview
     id="namedview7"
     pagecolor="#ffffff"
     bordercolor="#666666"
     borderopacity="1.0"
     inkscape:pageshadow="2"
     inkscape:pageopacity="0.0"
     inkscape:pagecheckerboard="0"
     inkscape:document-units="mm"
     showgrid="false"
     inkscape:zoom="0.76435185"
     inkscape:cx="92.889158"
     inkscape:cy="635.17868"
     inkscape:window-width="1920"
     inkscape:window-height="1051"
     inkscape:window-x="-9"
     inkscape:window-y="-9"
     inkscape:window-maximized="1"
     inkscape:current-layer="layer1" />
  <defs
     id="defs2" />
  <g
     inkscape:label="Camada 1"
     inkscape:groupmode="layer"
     id="layer1">
    <g
       transform="matrix(0.01091757,0,0,-0.01091757,-8.4603472,299.60984)"
       fill="#000000"
       stroke="none"
       id="g105"
       style="fill:#ffffff;fill-opacity:1">
      <path
         d="m 10065,25209 c -612,-34 -1221,-148 -1799,-336 -2232,-725 -3974,-2533 -4615,-4788 -511,-1795 -292,-3740 604,-5360 239,-434 569,-906 855,-1227 8,-9 49,-55 90,-102 107,-121 467,-476 589,-581 1168,-1009 2524,-1590 4041,-1730 237,-22 795,-31 1035,-16 647,40 1215,147 1800,338 1371,448 2578,1313 3456,2476 739,979 1212,2144 1363,3357 43,344 51,484 51,905 0,405 -7,538 -46,855 -201,1673 -1005,3231 -2249,4364 -1418,1292 -3271,1952 -5175,1845 z m 1675,-7074 v -1445 h -760 -760 v 710 710 l -737,2 -738,3 -3,733 -2,732 h 1500 1500 z"
         id="path61"
         style="fill:#ffffff;fill-opacity:1" />
      <path
         d="m 6839,9835 c -585,-83 -1064,-475 -1244,-1018 -166,-501 -82,-1059 220,-1458 27,-35 96,-111 154,-169 211,-210 476,-350 784,-412 95,-20 143,-23 322,-23 231,0 331,15 518,76 670,219 1098,879 1037,1597 -27,308 -124,571 -298,805 -148,199 -320,342 -547,453 -235,114 -396,153 -670,159 -121,3 -211,0 -276,-10 z m 441,-289 c 331,-54 620,-239 806,-517 151,-226 217,-448 217,-729 0,-273 -70,-506 -220,-732 -66,-100 -220,-253 -326,-322 -405,-268 -952,-269 -1360,-3 -271,176 -457,455 -529,790 -28,134 -31,388 -5,519 81,406 324,725 681,894 99,46 236,89 331,103 95,14 312,12 405,-3 z"
         id="path63"
         style="fill:#ffffff;fill-opacity:1" />
      <path
         d="m 16404,9835 c -115,-21 -184,-44 -286,-97 -208,-109 -352,-290 -403,-508 -23,-100 -24,-300 -1,-390 41,-164 152,-320 295,-414 125,-83 205,-116 531,-221 357,-116 512,-216 586,-381 65,-145 54,-349 -26,-489 -71,-124 -203,-230 -341,-276 -104,-34 -283,-34 -379,0 -215,76 -365,260 -403,496 l -12,75 h -164 -164 l 6,-77 c 33,-417 336,-731 766,-793 114,-17 321,-7 430,20 266,65 469,231 580,472 59,128 76,209 76,373 -1,164 -14,228 -77,355 -33,68 -58,102 -127,170 -135,134 -284,211 -645,336 -409,141 -539,230 -602,414 -25,75 -26,224 0,300 32,94 65,149 125,209 162,162 449,207 661,104 118,-58 219,-198 258,-360 l 17,-73 h 163 162 v 30 c 0,42 -18,124 -46,210 -88,270 -319,461 -624,516 -93,17 -262,16 -356,-1 z"
         id="path65"
         style="fill:#ffffff;fill-opacity:1" />
      <path
         d="M 3380,8301 V 6800 h 170 170 v 590 590 h 308 c 460,0 619,20 789,100 158,74 265,167 343,299 149,251 179,579 80,853 -89,246 -257,416 -491,498 -162,56 -240,62 -831,67 l -538,5 z m 975,1199 c 289,-24 460,-120 554,-312 78,-156 91,-344 37,-514 -48,-150 -135,-253 -270,-319 -145,-71 -254,-85 -658,-85 h -298 v 620 620 h 258 c 141,0 311,-5 377,-10 z"
         id="path67"
         style="fill:#ffffff;fill-opacity:1" />
      <path
         d="M 8920,8300 V 6800 h 165 165 l 2,1353 3,1352 250,3 c 286,3 516,-9 625,-33 187,-42 326,-151 413,-325 67,-134 82,-199 81,-350 0,-175 -34,-288 -122,-417 -84,-121 -156,-178 -274,-219 -112,-38 -172,-46 -386,-53 l -203,-6 172,-265 c 94,-146 194,-301 223,-345 29,-44 141,-218 250,-387 l 199,-308 h 178 c 99,0 179,2 179,4 0,3 -164,253 -366,557 -201,303 -363,554 -360,556 3,3 47,12 98,19 348,51 576,237 687,562 83,242 61,562 -53,796 -130,267 -340,419 -646,470 -161,27 -367,36 -832,36 h -448 z"
         id="path69"
         style="fill:#ffffff;fill-opacity:1" />
      <path
         d="m 10850,9655 v -145 l 468,-2 467,-3 3,-1352 2,-1353 h 165 165 v 1355 1355 l 736,2 736,3 68,143 69,142 h -1440 -1439 z"
         id="path71"
         style="fill:#ffffff;fill-opacity:1" />
      <path
         d="m 14032,9783 c -6,-10 -48,-110 -95,-223 -94,-229 -983,-2359 -1083,-2597 -35,-84 -64,-155 -64,-158 0,-3 80,-5 178,-5 h 178 l 171,418 171,417 h 702 702 l 170,-410 c 93,-225 173,-413 177,-418 4,-4 87,-6 183,-5 l 176,3 -618,1495 -618,1495 -160,3 c -146,2 -162,1 -170,-15 z m 461,-1125 c 162,-405 292,-739 289,-743 -8,-8 -1180,-6 -1185,3 -2,4 125,333 282,732 158,399 290,734 294,744 5,12 11,16 17,10 4,-5 141,-341 303,-746 z"
         id="path73"
         style="fill:#ffffff;fill-opacity:1" />
      <path
         d="m 10280,6125 c -79,-18 -213,-82 -270,-130 -134,-112 -200,-262 -200,-455 0,-176 41,-283 149,-391 87,-87 221,-154 411,-204 74,-20 171,-48 215,-62 298,-96 445,-273 445,-538 -1,-261 -177,-476 -446,-545 -331,-85 -647,115 -721,454 l -17,76 h -43 c -42,0 -43,-1 -43,-33 0,-53 28,-146 70,-236 32,-66 57,-100 118,-161 134,-133 263,-189 454,-197 146,-7 235,11 356,72 154,77 275,212 330,368 37,106 43,282 13,392 -30,109 -65,168 -142,247 -91,90 -218,152 -426,208 -351,93 -493,170 -576,310 -93,160 -70,410 52,564 186,233 590,263 798,58 61,-60 124,-177 144,-268 l 12,-54 h 47 47 l -8,48 c -31,163 -136,325 -263,401 -106,64 -177,83 -316,87 -85,3 -146,-1 -190,-11 z"
         id="path75"
         style="fill:#ffffff;fill-opacity:1" />
      <path
         d="m 14095,6125 c -180,-33 -388,-121 -520,-220 -396,-296 -571,-812 -444,-1310 101,-397 397,-709 794,-839 173,-56 426,-73 611,-41 304,54 610,241 772,473 l 43,62 h -53 c -53,0 -53,0 -112,-68 -213,-244 -501,-385 -817,-399 -329,-15 -627,98 -856,324 -502,497 -421,1364 165,1759 388,262 894,256 1282,-17 75,-53 270,-239 270,-259 0,-6 24,-10 55,-10 30,0 55,3 55,6 0,30 -158,203 -255,280 -154,123 -306,198 -495,245 -113,28 -378,35 -495,14 z"
         id="path77"
         style="fill:#ffffff;fill-opacity:1" />
      <path
         d="m 3293,6088 c 3,-7 136,-321 297,-698 343,-805 654,-1535 683,-1603 19,-46 22,-48 55,-45 l 36,3 183,430 c 101,237 326,763 500,1170 173,407 317,743 320,748 2,4 -20,7 -50,7 -43,0 -56,-4 -60,-17 -3,-10 -63,-155 -135,-323 -71,-168 -277,-651 -457,-1075 -179,-423 -328,-772 -331,-774 -9,-10 33,-107 -807,1876 l -132,313 h -54 c -39,0 -52,-3 -48,-12 z"
         id="path79"
         style="fill:#ffffff;fill-opacity:1" />
      <path
         d="M 5640,4920 V 3740 h 45 45 v 1180 1180 h -45 -45 z"
         id="path81"
         style="fill:#ffffff;fill-opacity:1" />
      <path
         d="M 6230,4920 V 3740 h 550 550 v 40 40 l -502,2 -503,3 -3,1138 -2,1137 h -45 -45 z"
         id="path83"
         style="fill:#ffffff;fill-opacity:1" />
      <path
         d="m 8435,6068 c -7,-18 -232,-544 -500,-1168 -268,-624 -489,-1141 -492,-1147 -4,-10 9,-13 45,-13 h 50 l 100,233 c 56,127 134,311 176,407 l 75,175 h 622 623 l 175,-407 175,-408 h 49 c 43,0 48,2 43,18 -4,9 -230,540 -504,1179 l -497,1163 h -63 c -62,0 -63,-1 -77,-32 z m 365,-731 c 154,-362 282,-667 285,-678 6,-19 -5,-19 -575,-19 -462,0 -581,3 -577,13 3,6 127,302 277,657 150,355 276,655 281,668 5,13 14,22 20,20 6,-2 136,-300 289,-661 z"
         id="path85"
         style="fill:#ffffff;fill-opacity:1" />
      <path
         d="M 11460,4920 V 3740 h 645 645 v 40 40 h -600 -600 l 2,533 3,532 598,3 597,2 v 40 40 h -600 -600 v 525 525 h 600 600 v 40 40 h -645 -645 z"
         id="path87"
         style="fill:#ffffff;fill-opacity:1" />
      <path
         d="m 16496,6092 c -8,-13 -1006,-2342 -1006,-2348 0,-2 22,-4 48,-4 h 48 l 175,408 176,407 h 623 623 l 175,-407 175,-408 h 48 c 27,0 49,1 49,3 0,1 -226,531 -503,1177 l -502,1175 -62,3 c -34,2 -64,-1 -67,-6 z m 354,-759 c 155,-368 285,-674 287,-680 4,-10 -115,-13 -576,-13 -320,0 -581,2 -581,5 0,3 122,294 271,648 149,353 277,657 284,675 8,17 18,32 23,32 5,0 136,-300 292,-667 z"
         id="path89"
         style="fill:#ffffff;fill-opacity:1" />
      <path
         d="m 3728,2840 c -364,-62 -433,-564 -100,-727 52,-26 66,-28 172,-28 110,0 119,2 180,32 127,63 197,161 213,301 l 5,42 h -229 -229 v -45 -45 h 160 c 115,0 160,-3 160,-12 0,-26 -54,-99 -93,-126 -58,-39 -99,-52 -171,-52 -153,0 -269,121 -269,281 0,117 58,209 161,257 104,48 233,23 307,-59 34,-38 37,-39 101,-39 h 65 l -23,41 c -48,87 -154,158 -263,178 -65,12 -79,12 -147,1 z"
         id="path91"
         style="fill:#ffffff;fill-opacity:1" />
      <path
         d="m 5844,2459 -152,-370 65,3 65,3 32,85 33,85 153,3 c 96,1 157,-1 164,-8 5,-5 24,-45 41,-88 l 31,-77 62,-3 c 34,-2 62,0 62,4 0,4 -66,171 -146,371 l -147,363 h -56 -56 z m 269,66 c 32,-83 57,-154 57,-158 0,-4 -57,-7 -126,-7 -116,0 -126,1 -119,18 4,9 32,84 62,165 31,82 59,145 63,140 4,-4 32,-76 63,-158 z"
         id="path93"
         style="fill:#ffffff;fill-opacity:1" />
      <path
         d="m 8110,2460 v -370 h 185 185 v 50 50 h -130 -130 v 320 320 h -55 -55 z"
         id="path95"
         style="fill:#ffffff;fill-opacity:1" />
      <path
         d="m 10330,2460 v -370 h 210 210 v 50 50 h -150 -151 l 3,113 3,112 143,3 142,3 v 49 50 h -145 -145 v 105 105 h 150 150 v 50 50 h -210 -210 z"
         id="path97"
         style="fill:#ffffff;fill-opacity:1" />
      <path
         d="m 12530,2461 v -371 h 55 55 v 320 320 h 85 c 128,0 182,-29 205,-112 13,-48 -1,-105 -36,-147 -24,-28 -67,-43 -155,-53 -25,-3 -23,-7 74,-165 l 100,-163 h 58 c 33,0 59,2 59,4 0,3 -36,62 -80,132 -44,70 -80,130 -80,133 0,4 24,15 53,26 164,63 167,331 3,418 -37,20 -58,22 -218,25 l -178,4 z"
         id="path99"
         style="fill:#ffffff;fill-opacity:1" />
      <path
         d="m 14970,2460 v -370 h 60 60 v 370 370 h -60 -60 z"
         id="path101"
         style="fill:#ffffff;fill-opacity:1" />
      <path
         d="m 17157,2668 c -36,-90 -104,-256 -151,-370 l -85,-208 h 63 63 l 34,88 35,87 h 159 160 l 35,-87 35,-88 h 64 c 56,0 62,2 57,18 -4,9 -71,176 -149,369 l -142,353 h -56 -55 z m 187,-152 c 31,-82 56,-150 56,-152 0,-2 -56,-4 -125,-4 -69,0 -125,2 -125,4 0,2 25,70 55,152 31,82 58,156 61,164 8,21 12,11 78,-164 z"
         id="path103"
         style="fill:#ffffff;fill-opacity:1" />
    </g>
  </g>
</svg>
