<svg xmlns="http://www.w3.org/2000/svg" width="50" height="50" fill="none" viewBox="0 0 611 570">
  <path fill="#FFFFFF" d="M559.821 529.286h30.536c11.247 0 20.357 9.109 20.357 20.357V570H407.143v-20.357c0-11.248 9.11-20.357 20.357-20.357h132.321Zm30.536 0v-20.358c0-11.247-9.11-20.357-20.357-20.357H447.857c-11.247 0-20.357 9.11-20.357 20.357v20.358h162.857ZM508.928 0H101.786v81.429h407.142V0Z"/>
  <path fill="#FFFFFF" d="M508.928 61.071H101.786V81.43h407.142V61.07Z"/>
  <path fill="#FFFFFF" d="M590.357 162.857h-570L0 81.429h610.714l-20.357 81.428Zm-20.357 0H447.857v325.714H570V162.857ZM152.679 529.286h30.535c11.248 0 20.357 9.109 20.357 20.357V570H0v-20.357c0-11.248 9.11-20.357 20.357-20.357H152.68Zm30.535 0v-20.358c0-11.247-9.11-20.357-20.357-20.357H40.714c-11.247 0-20.357 9.11-20.357 20.357v20.358h162.857Z"/>
  <path fill="#FFFFFF" d="M162.857 162.857H40.714v325.714h122.143V162.857Z"/>
  <path fill="#FFFFFF" d="M162.857 324.086c0-78.701 63.799-142.5 142.5-142.5s142.5 63.799 142.5 142.5V120.514h-285v203.572Z"/>
</svg>
