<?xml version="1.0" standalone="no"?>
<!DOCTYPE svg PUBLIC "-//W3C//DTD SVG 20010904//EN"
 "http://www.w3.org/TR/2001/REC-SVG-20010904/DTD/svg10.dtd">
<svg version="1.0" xmlns="http://www.w3.org/2000/svg"
 width="2081.000000pt" height="2655.000000pt" viewBox="0 0 2081.000000 2655.000000"
 preserveAspectRatio="xMidYMid meet">

<g transform="translate(0.000000,2655.000000) scale(0.100000,-0.100000)"
fill="currentColor" stroke="none">
<path d="M10065 25209 c-612 -34 -1221 -148 -1799 -336 -2232 -725 -3974
-2533 -4615 -4788 -511 -1795 -292 -3740 604 -5360 239 -434 569 -906 855
-1227 8 -9 49 -55 90 -102 107 -121 467 -476 589 -581 1168 -1009 2524 -1590
4041 -1730 237 -22 795 -31 1035 -16 647 40 1215 147 1800 338 1371 448 2578
1313 3456 2476 739 979 1212 2144 1363 3357 43 344 51 484 51 905 0 405 -7
538 -46 855 -201 1673 -1005 3231 -2249 4364 -1418 1292 -3271 1952 -5175
1845z m1675 -7074 l0 -1445 -760 0 -760 0 0 710 0 710 -737 2 -738 3 -3 733
-2 732 1500 0 1500 0 0 -1445z"/>
<path d="M6839 9835 c-585 -83 -1064 -475 -1244 -1018 -166 -501 -82 -1059
220 -1458 27 -35 96 -111 154 -169 211 -210 476 -350 784 -412 95 -20 143 -23
322 -23 231 0 331 15 518 76 670 219 1098 879 1037 1597 -27 308 -124 571
-298 805 -148 199 -320 342 -547 453 -235 114 -396 153 -670 159 -121 3 -211
0 -276 -10z m441 -289 c331 -54 620 -239 806 -517 151 -226 217 -448 217 -729
0 -273 -70 -506 -220 -732 -66 -100 -220 -253 -326 -322 -405 -268 -952 -269
-1360 -3 -271 176 -457 455 -529 790 -28 134 -31 388 -5 519 81 406 324 725
681 894 99 46 236 89 331 103 95 14 312 12 405 -3z"/>
<path d="M16404 9835 c-115 -21 -184 -44 -286 -97 -208 -109 -352 -290 -403
-508 -23 -100 -24 -300 -1 -390 41 -164 152 -320 295 -414 125 -83 205 -116
531 -221 357 -116 512 -216 586 -381 65 -145 54 -349 -26 -489 -71 -124 -203
-230 -341 -276 -104 -34 -283 -34 -379 0 -215 76 -365 260 -403 496 l-12 75
-164 0 -164 0 6 -77 c33 -417 336 -731 766 -793 114 -17 321 -7 430 20 266 65
469 231 580 472 59 128 76 209 76 373 -1 164 -14 228 -77 355 -33 68 -58 102
-127 170 -135 134 -284 211 -645 336 -409 141 -539 230 -602 414 -25 75 -26
224 0 300 32 94 65 149 125 209 162 162 449 207 661 104 118 -58 219 -198 258
-360 l17 -73 163 0 162 0 0 30 c0 42 -18 124 -46 210 -88 270 -319 461 -624
516 -93 17 -262 16 -356 -1z"/>
<path d="M3380 8301 l0 -1501 170 0 170 0 0 590 0 590 308 0 c460 0 619 20
789 100 158 74 265 167 343 299 149 251 179 579 80 853 -89 246 -257 416 -491
498 -162 56 -240 62 -831 67 l-538 5 0 -1501z m975 1199 c289 -24 460 -120
554 -312 78 -156 91 -344 37 -514 -48 -150 -135 -253 -270 -319 -145 -71 -254
-85 -658 -85 l-298 0 0 620 0 620 258 0 c141 0 311 -5 377 -10z"/>
<path d="M8920 8300 l0 -1500 165 0 165 0 2 1353 3 1352 250 3 c286 3 516 -9
625 -33 187 -42 326 -151 413 -325 67 -134 82 -199 81 -350 0 -175 -34 -288
-122 -417 -84 -121 -156 -178 -274 -219 -112 -38 -172 -46 -386 -53 l-203 -6
172 -265 c94 -146 194 -301 223 -345 29 -44 141 -218 250 -387 l199 -308 178
0 c99 0 179 2 179 4 0 3 -164 253 -366 557 -201 303 -363 554 -360 556 3 3 47
12 98 19 348 51 576 237 687 562 83 242 61 562 -53 796 -130 267 -340 419
-646 470 -161 27 -367 36 -832 36 l-448 0 0 -1500z"/>
<path d="M10850 9655 l0 -145 468 -2 467 -3 3 -1352 2 -1353 165 0 165 0 0
1355 0 1355 736 2 736 3 68 143 69 142 -1440 0 -1439 0 0 -145z"/>
<path d="M14032 9783 c-6 -10 -48 -110 -95 -223 -94 -229 -983 -2359 -1083
-2597 -35 -84 -64 -155 -64 -158 0 -3 80 -5 178 -5 l178 0 171 418 171 417
702 0 702 0 170 -410 c93 -225 173 -413 177 -418 4 -4 87 -6 183 -5 l176 3
-618 1495 -618 1495 -160 3 c-146 2 -162 1 -170 -15z m461 -1125 c162 -405
292 -739 289 -743 -8 -8 -1180 -6 -1185 3 -2 4 125 333 282 732 158 399 290
734 294 744 5 12 11 16 17 10 4 -5 141 -341 303 -746z"/>
<path d="M10280 6125 c-79 -18 -213 -82 -270 -130 -134 -112 -200 -262 -200
-455 0 -176 41 -283 149 -391 87 -87 221 -154 411 -204 74 -20 171 -48 215
-62 298 -96 445 -273 445 -538 -1 -261 -177 -476 -446 -545 -331 -85 -647 115
-721 454 l-17 76 -43 0 c-42 0 -43 -1 -43 -33 0 -53 28 -146 70 -236 32 -66
57 -100 118 -161 134 -133 263 -189 454 -197 146 -7 235 11 356 72 154 77 275
212 330 368 37 106 43 282 13 392 -30 109 -65 168 -142 247 -91 90 -218 152
-426 208 -351 93 -493 170 -576 310 -93 160 -70 410 52 564 186 233 590 263
798 58 61 -60 124 -177 144 -268 l12 -54 47 0 47 0 -8 48 c-31 163 -136 325
-263 401 -106 64 -177 83 -316 87 -85 3 -146 -1 -190 -11z"/>
<path d="M14095 6125 c-180 -33 -388 -121 -520 -220 -396 -296 -571 -812 -444
-1310 101 -397 397 -709 794 -839 173 -56 426 -73 611 -41 304 54 610 241 772
473 l43 62 -53 0 c-53 0 -53 0 -112 -68 -213 -244 -501 -385 -817 -399 -329
-15 -627 98 -856 324 -502 497 -421 1364 165 1759 388 262 894 256 1282 -17
75 -53 270 -239 270 -259 0 -6 24 -10 55 -10 30 0 55 3 55 6 0 30 -158 203
-255 280 -154 123 -306 198 -495 245 -113 28 -378 35 -495 14z"/>
<path d="M3293 6088 c3 -7 136 -321 297 -698 343 -805 654 -1535 683 -1603 19
-46 22 -48 55 -45 l36 3 183 430 c101 237 326 763 500 1170 173 407 317 743
320 748 2 4 -20 7 -50 7 -43 0 -56 -4 -60 -17 -3 -10 -63 -155 -135 -323 -71
-168 -277 -651 -457 -1075 -179 -423 -328 -772 -331 -774 -9 -10 33 -107 -807
1876 l-132 313 -54 0 c-39 0 -52 -3 -48 -12z"/>
<path d="M5640 4920 l0 -1180 45 0 45 0 0 1180 0 1180 -45 0 -45 0 0 -1180z"/>
<path d="M6230 4920 l0 -1180 550 0 550 0 0 40 0 40 -502 2 -503 3 -3 1138 -2
1137 -45 0 -45 0 0 -1180z"/>
<path d="M8435 6068 c-7 -18 -232 -544 -500 -1168 -268 -624 -489 -1141 -492
-1147 -4 -10 9 -13 45 -13 l50 0 100 233 c56 127 134 311 176 407 l75 175 622
0 623 0 175 -407 175 -408 49 0 c43 0 48 2 43 18 -4 9 -230 540 -504 1179
l-497 1163 -63 0 c-62 0 -63 -1 -77 -32z m365 -731 c154 -362 282 -667 285
-678 6 -19 -5 -19 -575 -19 -462 0 -581 3 -577 13 3 6 127 302 277 657 150
355 276 655 281 668 5 13 14 22 20 20 6 -2 136 -300 289 -661z"/>
<path d="M11460 4920 l0 -1180 645 0 645 0 0 40 0 40 -600 0 -600 0 2 533 3
532 598 3 597 2 0 40 0 40 -600 0 -600 0 0 525 0 525 600 0 600 0 0 40 0 40
-645 0 -645 0 0 -1180z"/>
<path d="M16496 6092 c-8 -13 -1006 -2342 -1006 -2348 0 -2 22 -4 48 -4 l48 0
175 408 176 407 623 0 623 0 175 -407 175 -408 48 0 c27 0 49 1 49 3 0 1 -226
531 -503 1177 l-502 1175 -62 3 c-34 2 -64 -1 -67 -6z m354 -759 c155 -368
285 -674 287 -680 4 -10 -115 -13 -576 -13 -320 0 -581 2 -581 5 0 3 122 294
271 648 149 353 277 657 284 675 8 17 18 32 23 32 5 0 136 -300 292 -667z"/>
<path d="M3728 2840 c-364 -62 -433 -564 -100 -727 52 -26 66 -28 172 -28 110
0 119 2 180 32 127 63 197 161 213 301 l5 42 -229 0 -229 0 0 -45 0 -45 160 0
c115 0 160 -3 160 -12 0 -26 -54 -99 -93 -126 -58 -39 -99 -52 -171 -52 -153
0 -269 121 -269 281 0 117 58 209 161 257 104 48 233 23 307 -59 34 -38 37
-39 101 -39 l65 0 -23 41 c-48 87 -154 158 -263 178 -65 12 -79 12 -147 1z"/>
<path d="M5844 2459 l-152 -370 65 3 65 3 32 85 33 85 153 3 c96 1 157 -1 164
-8 5 -5 24 -45 41 -88 l31 -77 62 -3 c34 -2 62 0 62 4 0 4 -66 171 -146 371
l-147 363 -56 0 -56 0 -151 -371z m269 66 c32 -83 57 -154 57 -158 0 -4 -57
-7 -126 -7 -116 0 -126 1 -119 18 4 9 32 84 62 165 31 82 59 145 63 140 4 -4
32 -76 63 -158z"/>
<path d="M8110 2460 l0 -370 185 0 185 0 0 50 0 50 -130 0 -130 0 0 320 0 320
-55 0 -55 0 0 -370z"/>
<path d="M10330 2460 l0 -370 210 0 210 0 0 50 0 50 -150 0 -151 0 3 113 3
112 143 3 142 3 0 49 0 50 -145 0 -145 0 0 105 0 105 150 0 150 0 0 50 0 50
-210 0 -210 0 0 -370z"/>
<path d="M12530 2461 l0 -371 55 0 55 0 0 320 0 320 85 0 c128 0 182 -29 205
-112 13 -48 -1 -105 -36 -147 -24 -28 -67 -43 -155 -53 -25 -3 -23 -7 74 -165
l100 -163 58 0 c33 0 59 2 59 4 0 3 -36 62 -80 132 -44 70 -80 130 -80 133 0
4 24 15 53 26 164 63 167 331 3 418 -37 20 -58 22 -218 25 l-178 4 0 -371z"/>
<path d="M14970 2460 l0 -370 60 0 60 0 0 370 0 370 -60 0 -60 0 0 -370z"/>
<path d="M17157 2668 c-36 -90 -104 -256 -151 -370 l-85 -208 63 0 63 0 34 88
35 87 159 0 160 0 35 -87 35 -88 64 0 c56 0 62 2 57 18 -4 9 -71 176 -149 369
l-142 353 -56 0 -55 0 -67 -162z m187 -152 c31 -82 56 -150 56 -152 0 -2 -56
-4 -125 -4 -69 0 -125 2 -125 4 0 2 25 70 55 152 31 82 58 156 61 164 8 21 12
11 78 -164z"/>
</g>
</svg>
